<svg xmlns="http://www.w3.org/2000/svg" xmlns:xlink="http://www.w3.org/1999/xlink" width="500" zoomAndPan="magnify" viewBox="0 0 375 374.999991" height="500" preserveAspectRatio="xMidYMid meet" version="1.0"><defs><g/><clipPath id="1681ad1e0e"><path d="M 3.21875 131.25 L 115.71875 131.25 L 115.71875 243.75 L 3.21875 243.75 Z M 3.21875 131.25 " clip-rule="nonzero"/></clipPath><clipPath id="027d1574b4"><path d="M 59.46875 131.25 C 28.402344 131.25 3.21875 156.433594 3.21875 187.5 C 3.21875 218.566406 28.402344 243.75 59.46875 243.75 C 90.535156 243.75 115.71875 218.566406 115.71875 187.5 C 115.71875 156.433594 90.535156 131.25 59.46875 131.25 Z M 59.46875 131.25 " clip-rule="nonzero"/></clipPath><clipPath id="4f5d870a14"><path d="M 46.492188 131.25 L 327.847656 131.25 L 327.847656 243.75 L 46.492188 243.75 Z M 46.492188 131.25 " clip-rule="nonzero"/></clipPath><clipPath id="0d8f8670fe"><path d="M 63.742188 131.25 L 310.597656 131.25 C 315.171875 131.25 319.558594 133.066406 322.792969 136.300781 C 326.03125 139.539062 327.847656 143.925781 327.847656 148.5 L 327.847656 226.5 C 327.847656 231.074219 326.03125 235.460938 322.792969 238.699219 C 319.558594 241.933594 315.171875 243.75 310.597656 243.75 L 63.742188 243.75 C 59.164062 243.75 54.777344 241.933594 51.542969 238.699219 C 48.308594 235.460938 46.492188 231.074219 46.492188 226.5 L 46.492188 148.5 C 46.492188 143.925781 48.308594 139.539062 51.542969 136.300781 C 54.777344 133.066406 59.164062 131.25 63.742188 131.25 Z M 63.742188 131.25 " clip-rule="nonzero"/></clipPath><clipPath id="ee2e4569fb"><path d="M 259.28125 131.25 L 371.78125 131.25 L 371.78125 243.75 L 259.28125 243.75 Z M 259.28125 131.25 " clip-rule="nonzero"/></clipPath><clipPath id="545af5809e"><path d="M 315.53125 131.25 C 284.464844 131.25 259.28125 156.433594 259.28125 187.5 C 259.28125 218.566406 284.464844 243.75 315.53125 243.75 C 346.597656 243.75 371.78125 218.566406 371.78125 187.5 C 371.78125 156.433594 346.597656 131.25 315.53125 131.25 Z M 315.53125 131.25 " clip-rule="nonzero"/></clipPath><clipPath id="942207ef88"><path d="M 9.972656 138.003906 L 108.964844 138.003906 L 108.964844 236.996094 L 9.972656 236.996094 Z M 9.972656 138.003906 " clip-rule="nonzero"/></clipPath><clipPath id="d4f0c66a3f"><path d="M 59.46875 138.003906 C 32.132812 138.003906 9.972656 160.164062 9.972656 187.5 C 9.972656 214.835938 32.132812 236.996094 59.46875 236.996094 C 86.804688 236.996094 108.964844 214.835938 108.964844 187.5 C 108.964844 160.164062 86.804688 138.003906 59.46875 138.003906 Z M 59.46875 138.003906 " clip-rule="nonzero"/></clipPath></defs><g clip-path="url(#1681ad1e0e)"><g clip-path="url(#027d1574b4)"><path fill="#ef7b00" d="M 3.21875 131.25 L 115.71875 131.25 L 115.71875 243.75 L 3.21875 243.75 Z M 3.21875 131.25 " fill-opacity="1" fill-rule="nonzero"/></g></g><g clip-path="url(#4f5d870a14)"><g clip-path="url(#0d8f8670fe)"><path fill="#ef7b00" d="M 46.492188 131.25 L 327.847656 131.25 L 327.847656 243.75 L 46.492188 243.75 Z M 46.492188 131.25 " fill-opacity="1" fill-rule="nonzero"/></g></g><g clip-path="url(#ee2e4569fb)"><g clip-path="url(#545af5809e)"><path fill="#ef7b00" d="M 259.28125 131.25 L 371.78125 131.25 L 371.78125 243.75 L 259.28125 243.75 Z M 259.28125 131.25 " fill-opacity="1" fill-rule="nonzero"/></g></g><g clip-path="url(#942207ef88)"><g clip-path="url(#d4f0c66a3f)"><path fill="#ffffff" d="M 9.972656 138.003906 L 108.964844 138.003906 L 108.964844 236.996094 L 9.972656 236.996094 Z M 9.972656 138.003906 " fill-opacity="1" fill-rule="nonzero"/></g></g><g fill="#000000" fill-opacity="1"><g transform="translate(119.008386, 178.500017)"><g><path d="M 15.265625 -23.84375 L 21.65625 -24 L 20.84375 -1.3125 L 19.703125 0.09375 L 14.4375 0.03125 L 11.0625 -4.296875 L 7.796875 0.0625 L 2.15625 0 L 1.109375 -1.46875 L 1.109375 -1.6875 L 0.59375 -24 L 6.75 -23.8125 L 7.703125 -7.953125 L 10.984375 -12.15625 L 14.21875 -7.921875 Z M 15.265625 -23.84375 "/></g></g></g><g fill="#000000" fill-opacity="1"><g transform="translate(141.268368, 178.500017)"><g><path d="M 12.421875 -17.4375 L 17.40625 -17.640625 L 17.1875 5.9375 L 15.265625 7.625 L 2.1875 7.34375 L 0.71875 5.046875 L 0.90625 2.015625 L 1.5625 0.90625 L 6.421875 0.84375 L 6.984375 2.8125 L 11.1875 2.484375 L 11.09375 -0.484375 L 2.8125 -0.0625 L 1.109375 -1.734375 L 0.59375 -17.671875 L 5.703125 -17.609375 L 6.75 -16.765625 L 6.9375 -5.453125 L 11.09375 -5.703125 L 11.3125 -16.265625 Z M 12.421875 -17.4375 "/></g></g></g><g fill="#000000" fill-opacity="1"><g transform="translate(159.268355, 178.500017)"><g><path d="M 17.578125 -16.34375 L 17.640625 -1.5625 L 16.34375 -0.0625 L 7.046875 -0.1875 L 6.875 6.78125 L 0.59375 7.703125 L 0.78125 -17.25 L 4.625 -17.34375 L 5.125 -16.40625 L 5.875 -17.25 L 16.375 -17.515625 Z M 7.34375 -12.328125 L 7.234375 -4.734375 L 11.3125 -5.0625 L 11.3125 -11.9375 Z M 7.34375 -12.328125 "/></g></g></g><g fill="#000000" fill-opacity="1"><g transform="translate(177.508337, 178.500017)"><g><path d="M 15.953125 -17.3125 L 17.515625 -15.359375 L 17.375 -2.25 L 16.203125 -0.125 L 2.765625 -0.03125 L 0.75 -1.078125 L 0.59375 -15.5625 L 1.796875 -17.578125 Z M 11.15625 -12.5625 L 6.953125 -12.75 L 7.078125 -4.796875 L 11.0625 -4.46875 Z M 11.15625 -12.5625 "/></g></g></g><g fill="#000000" fill-opacity="1"><g transform="translate(195.628315, 178.500017)"><g><path d="M 16.921875 -4.375 L 16.953125 0 L 1.53125 -0.15625 L 0.6875 -1.046875 L 0.59375 -5.796875 L 8.484375 -12.03125 L 1.5625 -12.265625 L 0.71875 -12.90625 L 0.75 -17.546875 L 16.796875 -17.0625 L 16.796875 -11.0625 L 9.125 -5.34375 L 15.59375 -5.4375 Z M 10.703125 -18.515625 L 6.59375 -18.515625 L 5.9375 -19.265625 L 6.234375 -22.734375 L 7.078125 -23.640625 L 10.265625 -23.703125 L 11.640625 -22.796875 L 11.515625 -19.234375 Z M 10.703125 -18.515625 "/></g></g></g><g fill="#000000" fill-opacity="1"><g transform="translate(213.178298, 178.500017)"><g><path d="M 12.421875 -17.4375 L 17.40625 -17.640625 L 17.1875 5.9375 L 15.265625 7.625 L 2.1875 7.34375 L 0.71875 5.046875 L 0.90625 2.015625 L 1.5625 0.90625 L 6.421875 0.84375 L 6.984375 2.8125 L 11.1875 2.484375 L 11.09375 -0.484375 L 2.8125 -0.0625 L 1.109375 -1.734375 L 0.59375 -17.671875 L 5.703125 -17.609375 L 6.75 -16.765625 L 6.9375 -5.453125 L 11.09375 -5.703125 L 11.3125 -16.265625 Z M 12.421875 -17.4375 "/></g></g></g><g fill="#000000" fill-opacity="1"><g transform="translate(231.178286, 178.500017)"><g><path d="M 11.640625 -6.484375 L 17.25 -6.203125 L 17.40625 -2.375 L 16.203125 -0.234375 L 2.734375 -0.0625 L 0.75 -1.234375 L 0.59375 -15.59375 L 1.796875 -17.609375 L 15.453125 -17.34375 L 17.703125 -15.8125 L 17.28125 -9.515625 L 11.484375 -9.515625 L 11.15625 -12.6875 L 7.046875 -12.875 L 7.171875 -4.921875 L 11.125 -4.65625 Z M 11.640625 -6.484375 "/></g></g></g><g fill="#000000" fill-opacity="1"><g transform="translate(249.478269, 178.500017)"><g><path d="M 16.953125 -4.4375 L 16.984375 -0.03125 L 1.53125 -0.1875 L 0.6875 -1.078125 L 0.59375 -5.8125 L 8.484375 -12.0625 L 1.59375 -12.328125 L 0.75 -12.953125 L 0.78125 -17.578125 L 16.828125 -17.125 L 16.796875 -11.0625 L 9.15625 -5.375 L 15.625 -5.484375 Z M 16.953125 -4.4375 "/></g></g></g><g fill="#000000" fill-opacity="1"><g transform="translate(267.058247, 178.500017)"><g><path d="M 17.546875 -16.3125 L 17.765625 0 L 13.65625 0.03125 L 13.015625 -1.015625 L 12.328125 0 L 2.84375 -0.09375 L 0.59375 -1.734375 L 1.140625 -9.546875 L 2.875 -10.734375 L 11.28125 -10.890625 L 11.375 -12.9375 L 7.109375 -13.234375 L 6.59375 -12.125 L 1.109375 -12.484375 L 0.8125 -14.640625 L 2.375 -17.28125 L 15.5625 -17.453125 Z M 11.484375 -4.6875 L 11.453125 -7.4375 L 6.984375 -7.375 L 7.171875 -4.859375 Z M 11.484375 -4.6875 "/></g></g></g><g fill="#000000" fill-opacity="1"><g transform="translate(285.418231, 178.500017)"><g><path d="M 0.65625 -23.9375 L 8.703125 -23.9375 L 7.828125 -0.515625 L 1.65625 0 L 1.765625 -18.359375 L 0.59375 -18.90625 Z M 0.65625 -23.9375 "/></g></g></g><g fill="#000000" fill-opacity="1"><g transform="translate(294.718225, 178.500017)"><g><path d="M 16.203125 -17.578125 L 17.40625 -16.40625 L 17.34375 -0.84375 L 15.84375 -0.03125 L 11.125 -0.125 L 11.125 -12.1875 L 6.9375 -12.0625 L 7.015625 -0.484375 L 0.6875 -0.0625 L 0.59375 -17.21875 L 4.4375 -17.3125 L 4.984375 -16.40625 L 5.734375 -17.125 Z M 16.203125 -17.578125 "/></g></g></g><g fill="#000000" fill-opacity="1"><g transform="translate(312.718213, 178.500017)"><g><path d="M 0.59375 -0.0625 L 0.75 -17.546875 L 7.265625 -17.546875 L 6.453125 -0.359375 Z M 5.640625 -18.15625 L 2.375 -18.09375 L 0.875 -19.109375 L 1.015625 -23.96875 L 6.6875 -23.96875 L 7.4375 -23.15625 L 6.78125 -19.078125 Z M 5.640625 -18.15625 "/></g></g></g><g fill="#000000" fill-opacity="1"><g transform="translate(320.75819, 178.500017)"><g><path d="M 17.546875 -16.3125 L 17.765625 0 L 13.65625 0.03125 L 13.015625 -1.015625 L 12.328125 0 L 2.84375 -0.09375 L 0.59375 -1.734375 L 1.140625 -9.546875 L 2.875 -10.734375 L 11.28125 -10.890625 L 11.375 -12.9375 L 7.109375 -13.234375 L 6.59375 -12.125 L 1.109375 -12.484375 L 0.8125 -14.640625 L 2.375 -17.28125 L 15.5625 -17.453125 Z M 11.484375 -4.6875 L 11.453125 -7.4375 L 6.984375 -7.375 L 7.171875 -4.859375 Z M 11.484375 -4.6875 "/></g></g></g><g fill="#000000" fill-opacity="1"><g transform="translate(130.28443, 206.949157)"><g><path d="M 5.8125 -2.703125 C 5.8125 -3.234375 5.664062 -3.640625 5.375 -3.921875 C 5.082031 -4.203125 4.5625 -4.476562 3.8125 -4.75 C 3.0625 -5.019531 2.488281 -5.300781 2.09375 -5.59375 C 1.695312 -5.882812 1.398438 -6.21875 1.203125 -6.59375 C 1.003906 -6.976562 0.90625 -7.414062 0.90625 -7.90625 C 0.90625 -8.75 1.1875 -9.441406 1.75 -9.984375 C 2.3125 -10.535156 3.050781 -10.8125 3.96875 -10.8125 C 4.59375 -10.8125 5.144531 -10.671875 5.625 -10.390625 C 6.113281 -10.109375 6.488281 -9.71875 6.75 -9.21875 C 7.019531 -8.71875 7.15625 -8.171875 7.15625 -7.578125 L 5.8125 -7.578125 C 5.8125 -8.234375 5.648438 -8.742188 5.328125 -9.109375 C 5.015625 -9.472656 4.5625 -9.65625 3.96875 -9.65625 C 3.425781 -9.65625 3.003906 -9.503906 2.703125 -9.203125 C 2.398438 -8.898438 2.25 -8.472656 2.25 -7.921875 C 2.25 -7.472656 2.410156 -7.097656 2.734375 -6.796875 C 3.054688 -6.492188 3.554688 -6.222656 4.234375 -5.984375 C 5.285156 -5.640625 6.035156 -5.210938 6.484375 -4.703125 C 6.929688 -4.191406 7.15625 -3.523438 7.15625 -2.703125 C 7.15625 -1.835938 6.875 -1.144531 6.3125 -0.625 C 5.757812 -0.113281 5 0.140625 4.03125 0.140625 C 3.40625 0.140625 2.832031 0.00390625 2.3125 -0.265625 C 1.789062 -0.535156 1.378906 -0.914062 1.078125 -1.40625 C 0.773438 -1.894531 0.625 -2.457031 0.625 -3.09375 L 1.96875 -3.09375 C 1.96875 -2.4375 2.148438 -1.921875 2.515625 -1.546875 C 2.890625 -1.179688 3.394531 -1 4.03125 -1 C 4.625 -1 5.066406 -1.148438 5.359375 -1.453125 C 5.660156 -1.753906 5.8125 -2.171875 5.8125 -2.703125 Z M 5.8125 -2.703125 "/></g></g><g transform="translate(138.055426, 206.949157)"><g><path d="M 6.6875 -3.578125 C 6.6875 -2.328125 6.460938 -1.394531 6.015625 -0.78125 C 5.566406 -0.164062 4.929688 0.140625 4.109375 0.140625 C 3.304688 0.140625 2.691406 -0.15625 2.265625 -0.75 L 2.265625 3.046875 L 0.96875 3.046875 L 0.96875 -7.921875 L 2.140625 -7.921875 L 2.21875 -7.046875 C 2.644531 -7.734375 3.265625 -8.078125 4.078125 -8.078125 C 4.953125 -8.078125 5.601562 -7.769531 6.03125 -7.15625 C 6.457031 -6.550781 6.675781 -5.648438 6.6875 -4.453125 Z M 5.40625 -4.328125 C 5.40625 -5.210938 5.265625 -5.863281 4.984375 -6.28125 C 4.710938 -6.707031 4.273438 -6.921875 3.671875 -6.921875 C 3.054688 -6.921875 2.585938 -6.609375 2.265625 -5.984375 L 2.265625 -1.875 C 2.578125 -1.257812 3.050781 -0.953125 3.6875 -0.953125 C 4.28125 -0.953125 4.710938 -1.164062 4.984375 -1.59375 C 5.253906 -2.019531 5.394531 -2.664062 5.40625 -3.53125 Z M 5.40625 -4.328125 "/></g></g><g transform="translate(145.452886, 206.949157)"><g><path d="M 4.234375 -6.703125 C 4.054688 -6.742188 3.863281 -6.765625 3.65625 -6.765625 C 2.988281 -6.765625 2.523438 -6.398438 2.265625 -5.671875 L 2.265625 0 L 0.96875 0 L 0.96875 -7.921875 L 2.234375 -7.921875 L 2.25 -7.125 C 2.59375 -7.757812 3.082031 -8.078125 3.71875 -8.078125 C 3.925781 -8.078125 4.097656 -8.039062 4.234375 -7.96875 Z M 4.234375 -6.703125 "/></g></g><g transform="translate(150.015874, 206.949157)"><g><path d="M 2.171875 -1.109375 L 5.984375 -1.109375 L 5.984375 0 L 0.6875 0 L 0.6875 -1 L 4.328125 -6.796875 L 0.71875 -6.796875 L 0.71875 -7.921875 L 5.84375 -7.921875 L 5.84375 -6.96875 Z M 2.171875 -1.109375 "/></g></g><g transform="translate(156.600347, 206.949157)"><g><path d="M 6.375 -1.046875 C 6.007812 -0.535156 5.523438 -0.1875 4.921875 0 C 4.367188 0.507812 4.09375 0.988281 4.09375 1.4375 C 4.09375 1.789062 4.242188 1.96875 4.546875 1.96875 C 4.734375 1.96875 4.9375 1.90625 5.15625 1.78125 L 5.234375 2.671875 C 4.929688 2.878906 4.585938 2.984375 4.203125 2.984375 C 3.828125 2.984375 3.523438 2.859375 3.296875 2.609375 C 3.078125 2.359375 2.96875 2.019531 2.96875 1.59375 C 2.96875 1.050781 3.171875 0.566406 3.578125 0.140625 C 2.679688 0.0976562 1.984375 -0.210938 1.484375 -0.796875 C 0.992188 -1.378906 0.738281 -2.210938 0.71875 -3.296875 L 0.71875 -4.28125 C 0.71875 -5.46875 0.972656 -6.394531 1.484375 -7.0625 C 2.003906 -7.738281 2.726562 -8.078125 3.65625 -8.078125 C 4.582031 -8.078125 5.273438 -7.78125 5.734375 -7.1875 C 6.191406 -6.59375 6.425781 -5.671875 6.4375 -4.421875 L 6.4375 -3.578125 L 2.015625 -3.578125 L 2.015625 -3.390625 C 2.015625 -2.535156 2.171875 -1.914062 2.484375 -1.53125 C 2.804688 -1.144531 3.269531 -0.953125 3.875 -0.953125 C 4.257812 -0.953125 4.59375 -1.023438 4.875 -1.171875 C 5.164062 -1.316406 5.441406 -1.546875 5.703125 -1.859375 Z M 3.65625 -6.953125 C 3.113281 -6.953125 2.710938 -6.769531 2.453125 -6.40625 C 2.203125 -6.039062 2.054688 -5.46875 2.015625 -4.6875 L 5.140625 -4.6875 L 5.140625 -4.859375 C 5.109375 -5.609375 4.972656 -6.144531 4.734375 -6.46875 C 4.492188 -6.789062 4.132812 -6.953125 3.65625 -6.953125 Z M 3.65625 -6.953125 "/></g></g><g transform="translate(163.624272, 206.949157)"><g><path d="M 2.671875 -9.84375 L 2.671875 -7.921875 L 3.859375 -7.921875 L 3.859375 -6.875 L 2.671875 -6.875 L 2.671875 -1.96875 C 2.671875 -1.65625 2.71875 -1.414062 2.8125 -1.25 C 2.914062 -1.09375 3.09375 -1.015625 3.34375 -1.015625 C 3.519531 -1.015625 3.695312 -1.039062 3.875 -1.09375 L 3.859375 0 C 3.554688 0.09375 3.253906 0.140625 2.953125 0.140625 C 2.441406 0.140625 2.050781 -0.0390625 1.78125 -0.40625 C 1.507812 -0.769531 1.375 -1.285156 1.375 -1.953125 L 1.375 -6.875 L 0.171875 -6.875 L 0.171875 -7.921875 L 1.375 -7.921875 L 1.375 -9.84375 Z M 2.671875 -9.84375 "/></g></g><g transform="translate(168.055424, 206.949157)"><g><path d="M 5.015625 -0.703125 C 4.578125 -0.140625 3.945312 0.140625 3.125 0.140625 C 2.40625 0.140625 1.863281 -0.101562 1.5 -0.59375 C 1.132812 -1.09375 0.945312 -1.816406 0.9375 -2.765625 L 0.9375 -7.921875 L 2.234375 -7.921875 L 2.234375 -2.859375 C 2.234375 -1.617188 2.601562 -1 3.34375 -1 C 4.132812 -1 4.675781 -1.351562 4.96875 -2.0625 L 4.96875 -7.921875 L 6.265625 -7.921875 L 6.265625 0 L 5.046875 0 Z M 5.015625 -0.703125 "/></g></g><g transform="translate(175.3064, 206.949157)"><g/></g><g transform="translate(178.741459, 206.949157)"><g><path d="M 6.703125 -3.578125 C 6.703125 -2.347656 6.476562 -1.421875 6.03125 -0.796875 C 5.59375 -0.171875 4.953125 0.140625 4.109375 0.140625 C 3.265625 0.140625 2.632812 -0.21875 2.21875 -0.9375 L 2.15625 0 L 0.96875 0 L 0.96875 -11.25 L 2.265625 -11.25 L 2.265625 -7.046875 C 2.691406 -7.734375 3.300781 -8.078125 4.09375 -8.078125 C 4.957031 -8.078125 5.609375 -7.765625 6.046875 -7.140625 C 6.484375 -6.523438 6.703125 -5.597656 6.703125 -4.359375 Z M 5.421875 -4.328125 C 5.421875 -5.265625 5.289062 -5.929688 5.03125 -6.328125 C 4.769531 -6.722656 4.34375 -6.921875 3.75 -6.921875 C 3.082031 -6.921875 2.585938 -6.5625 2.265625 -5.84375 L 2.265625 -2.0625 C 2.585938 -1.351562 3.085938 -1 3.765625 -1 C 4.359375 -1 4.78125 -1.203125 5.03125 -1.609375 C 5.28125 -2.023438 5.410156 -2.660156 5.421875 -3.515625 Z M 5.421875 -4.328125 "/></g></g><g transform="translate(186.138919, 206.949157)"><g><path d="M 5.015625 -0.703125 C 4.578125 -0.140625 3.945312 0.140625 3.125 0.140625 C 2.40625 0.140625 1.863281 -0.101562 1.5 -0.59375 C 1.132812 -1.09375 0.945312 -1.816406 0.9375 -2.765625 L 0.9375 -7.921875 L 2.234375 -7.921875 L 2.234375 -2.859375 C 2.234375 -1.617188 2.601562 -1 3.34375 -1 C 4.132812 -1 4.675781 -1.351562 4.96875 -2.0625 L 4.96875 -7.921875 L 6.265625 -7.921875 L 6.265625 0 L 5.046875 0 Z M 5.015625 -0.703125 "/></g></g><g transform="translate(193.389895, 206.949157)"><g><path d="M 0.703125 -4.328125 C 0.703125 -5.546875 0.925781 -6.472656 1.375 -7.109375 C 1.832031 -7.753906 2.488281 -8.078125 3.34375 -8.078125 C 4.101562 -8.078125 4.695312 -7.769531 5.125 -7.15625 L 5.125 -11.25 L 6.421875 -11.25 L 6.421875 0 L 5.234375 0 L 5.15625 -0.84375 C 4.738281 -0.1875 4.132812 0.140625 3.34375 0.140625 C 2.519531 0.140625 1.875 -0.175781 1.40625 -0.8125 C 0.9375 -1.445312 0.703125 -2.347656 0.703125 -3.515625 Z M 2 -3.578125 C 2 -2.691406 2.128906 -2.039062 2.390625 -1.625 C 2.648438 -1.207031 3.078125 -1 3.671875 -1 C 4.316406 -1 4.800781 -1.320312 5.125 -1.96875 L 5.125 -5.96875 C 4.789062 -6.601562 4.3125 -6.921875 3.6875 -6.921875 C 3.09375 -6.921875 2.660156 -6.710938 2.390625 -6.296875 C 2.128906 -5.878906 2 -5.238281 2 -4.375 Z M 2 -3.578125 "/></g></g><g transform="translate(200.831301, 206.949157)"><g><path d="M 0.703125 -4.328125 C 0.703125 -5.484375 0.976562 -6.394531 1.53125 -7.0625 C 2.09375 -7.738281 2.832031 -8.078125 3.75 -8.078125 C 4.664062 -8.078125 5.398438 -7.75 5.953125 -7.09375 C 6.515625 -6.4375 6.804688 -5.546875 6.828125 -4.421875 L 6.828125 -3.578125 C 6.828125 -2.429688 6.546875 -1.523438 5.984375 -0.859375 C 5.429688 -0.191406 4.691406 0.140625 3.765625 0.140625 C 2.847656 0.140625 2.109375 -0.179688 1.546875 -0.828125 C 0.992188 -1.472656 0.710938 -2.351562 0.703125 -3.46875 Z M 2 -3.578125 C 2 -2.765625 2.15625 -2.125 2.46875 -1.65625 C 2.789062 -1.1875 3.222656 -0.953125 3.765625 -0.953125 C 4.910156 -0.953125 5.5 -1.78125 5.53125 -3.4375 L 5.53125 -4.328125 C 5.53125 -5.140625 5.367188 -5.78125 5.046875 -6.25 C 4.722656 -6.71875 4.289062 -6.953125 3.75 -6.953125 C 3.21875 -6.953125 2.789062 -6.71875 2.46875 -6.25 C 2.15625 -5.78125 2 -5.144531 2 -4.34375 Z M 2 -3.578125 "/></g></g><g transform="translate(208.360597, 206.949157)"><g><path d="M 6.875 -2.28125 L 8.078125 -7.921875 L 9.359375 -7.921875 L 7.421875 0 L 6.390625 0 L 4.84375 -5.671875 L 3.328125 0 L 2.296875 0 L 0.359375 -7.921875 L 1.640625 -7.921875 L 2.875 -2.421875 L 4.34375 -7.921875 L 5.375 -7.921875 Z M 6.875 -2.28125 "/></g></g><g transform="translate(218.109132, 206.949157)"><g><path d="M 2.359375 0 L 1.0625 0 L 1.0625 -11.25 L 2.359375 -11.25 Z M 2.359375 0 "/></g></g><g transform="translate(221.54419, 206.949157)"><g><path d="M 5.046875 0 C 4.960938 -0.164062 4.90625 -0.453125 4.875 -0.859375 C 4.414062 -0.191406 3.832031 0.140625 3.125 0.140625 C 2.40625 0.140625 1.84375 -0.0546875 1.4375 -0.453125 C 1.03125 -0.859375 0.828125 -1.425781 0.828125 -2.15625 C 0.828125 -2.96875 1.097656 -3.609375 1.640625 -4.078125 C 2.191406 -4.554688 2.945312 -4.800781 3.90625 -4.8125 L 4.859375 -4.8125 L 4.859375 -5.640625 C 4.859375 -6.117188 4.75 -6.457031 4.53125 -6.65625 C 4.320312 -6.851562 4.003906 -6.953125 3.578125 -6.953125 C 3.191406 -6.953125 2.875 -6.835938 2.625 -6.609375 C 2.382812 -6.378906 2.265625 -6.085938 2.265625 -5.734375 L 0.96875 -5.734375 C 0.96875 -6.128906 1.085938 -6.507812 1.328125 -6.875 C 1.566406 -7.25 1.890625 -7.539062 2.296875 -7.75 C 2.703125 -7.96875 3.148438 -8.078125 3.640625 -8.078125 C 4.453125 -8.078125 5.066406 -7.875 5.484375 -7.46875 C 5.910156 -7.0625 6.128906 -6.472656 6.140625 -5.703125 L 6.140625 -1.703125 C 6.148438 -1.097656 6.234375 -0.570312 6.390625 -0.125 L 6.390625 0 Z M 3.3125 -1.03125 C 3.632812 -1.03125 3.9375 -1.117188 4.21875 -1.296875 C 4.507812 -1.472656 4.722656 -1.691406 4.859375 -1.953125 L 4.859375 -3.84375 L 4.125 -3.84375 C 3.507812 -3.832031 3.019531 -3.691406 2.65625 -3.421875 C 2.300781 -3.160156 2.125 -2.789062 2.125 -2.3125 C 2.125 -1.863281 2.210938 -1.535156 2.390625 -1.328125 C 2.578125 -1.128906 2.882812 -1.03125 3.3125 -1.03125 Z M 3.3125 -1.03125 "/></g></g><g transform="translate(228.729248, 206.949157)"><g><path d="M 2.1875 -7.921875 L 2.234375 -7.0625 C 2.734375 -7.738281 3.375 -8.078125 4.15625 -8.078125 C 5.550781 -8.078125 6.257812 -7.140625 6.28125 -5.265625 L 6.28125 0 L 5 0 L 5 -5.203125 C 5 -5.828125 4.894531 -6.269531 4.6875 -6.53125 C 4.476562 -6.789062 4.164062 -6.921875 3.75 -6.921875 C 3.425781 -6.921875 3.132812 -6.8125 2.875 -6.59375 C 2.625 -6.382812 2.421875 -6.101562 2.265625 -5.75 L 2.265625 0 L 0.96875 0 L 0.96875 -7.921875 Z M 2.1875 -7.921875 "/></g></g><g transform="translate(235.987549, 206.949157)"><g><path d="M 0.703125 -4.328125 C 0.703125 -5.484375 0.976562 -6.394531 1.53125 -7.0625 C 2.09375 -7.738281 2.832031 -8.078125 3.75 -8.078125 C 4.664062 -8.078125 5.398438 -7.75 5.953125 -7.09375 C 6.515625 -6.4375 6.804688 -5.546875 6.828125 -4.421875 L 6.828125 -3.578125 C 6.828125 -2.429688 6.546875 -1.523438 5.984375 -0.859375 C 5.429688 -0.191406 4.691406 0.140625 3.765625 0.140625 C 2.847656 0.140625 2.109375 -0.179688 1.546875 -0.828125 C 0.992188 -1.472656 0.710938 -2.351562 0.703125 -3.46875 Z M 2 -3.578125 C 2 -2.765625 2.15625 -2.125 2.46875 -1.65625 C 2.789062 -1.1875 3.222656 -0.953125 3.765625 -0.953125 C 4.910156 -0.953125 5.5 -1.78125 5.53125 -3.4375 L 5.53125 -4.328125 C 5.53125 -5.140625 5.367188 -5.78125 5.046875 -6.25 C 4.722656 -6.71875 4.289062 -6.953125 3.75 -6.953125 C 3.21875 -6.953125 2.789062 -6.71875 2.46875 -6.25 C 2.15625 -5.78125 2 -5.144531 2 -4.34375 Z M 2 -3.578125 "/></g></g><g transform="translate(243.516845, 206.949157)"><g><path d="M 3.375 -3.984375 L 0.34375 -3.984375 L 0.34375 -5.078125 L 3.375 -5.078125 Z M 3.375 -3.984375 "/></g></g><g transform="translate(247.237548, 206.949157)"><g><path d="M 0.703125 -4.328125 C 0.703125 -5.484375 0.976562 -6.394531 1.53125 -7.0625 C 2.09375 -7.738281 2.832031 -8.078125 3.75 -8.078125 C 4.664062 -8.078125 5.398438 -7.75 5.953125 -7.09375 C 6.515625 -6.4375 6.804688 -5.546875 6.828125 -4.421875 L 6.828125 -3.578125 C 6.828125 -2.429688 6.546875 -1.523438 5.984375 -0.859375 C 5.429688 -0.191406 4.691406 0.140625 3.765625 0.140625 C 2.847656 0.140625 2.109375 -0.179688 1.546875 -0.828125 C 0.992188 -1.472656 0.710938 -2.351562 0.703125 -3.46875 Z M 2 -3.578125 C 2 -2.765625 2.15625 -2.125 2.46875 -1.65625 C 2.789062 -1.1875 3.222656 -0.953125 3.765625 -0.953125 C 4.910156 -0.953125 5.5 -1.78125 5.53125 -3.4375 L 5.53125 -4.328125 C 5.53125 -5.140625 5.367188 -5.78125 5.046875 -6.25 C 4.722656 -6.71875 4.289062 -6.953125 3.75 -6.953125 C 3.21875 -6.953125 2.789062 -6.71875 2.46875 -6.25 C 2.15625 -5.78125 2 -5.144531 2 -4.34375 Z M 2 -3.578125 "/></g></g><g transform="translate(254.766845, 206.949157)"><g><path d="M 0.703125 -4.328125 C 0.703125 -5.554688 0.925781 -6.488281 1.375 -7.125 C 1.832031 -7.757812 2.492188 -8.078125 3.359375 -8.078125 C 4.160156 -8.078125 4.769531 -7.726562 5.1875 -7.03125 L 5.265625 -7.921875 L 6.4375 -7.921875 L 6.4375 0.078125 C 6.4375 1.054688 6.179688 1.804688 5.671875 2.328125 C 5.171875 2.859375 4.472656 3.125 3.578125 3.125 C 3.179688 3.125 2.738281 3.023438 2.25 2.828125 C 1.769531 2.640625 1.410156 2.398438 1.171875 2.109375 L 1.6875 1.21875 C 2.226562 1.75 2.820312 2.015625 3.46875 2.015625 C 4.550781 2.015625 5.109375 1.425781 5.140625 0.25 L 5.140625 -0.78125 C 4.710938 -0.164062 4.113281 0.140625 3.34375 0.140625 C 2.519531 0.140625 1.878906 -0.164062 1.421875 -0.78125 C 0.960938 -1.394531 0.722656 -2.28125 0.703125 -3.4375 Z M 2 -3.578125 C 2 -2.691406 2.128906 -2.039062 2.390625 -1.625 C 2.660156 -1.207031 3.09375 -1 3.6875 -1 C 4.332031 -1 4.816406 -1.328125 5.140625 -1.984375 L 5.140625 -5.953125 C 4.796875 -6.597656 4.316406 -6.921875 3.703125 -6.921875 C 3.109375 -6.921875 2.675781 -6.710938 2.40625 -6.296875 C 2.144531 -5.878906 2.007812 -5.238281 2 -4.375 Z M 2 -3.578125 "/></g></g><g transform="translate(262.156981, 206.949157)"><g><path d="M 4.234375 -6.703125 C 4.054688 -6.742188 3.863281 -6.765625 3.65625 -6.765625 C 2.988281 -6.765625 2.523438 -6.398438 2.265625 -5.671875 L 2.265625 0 L 0.96875 0 L 0.96875 -7.921875 L 2.234375 -7.921875 L 2.25 -7.125 C 2.59375 -7.757812 3.082031 -8.078125 3.71875 -8.078125 C 3.925781 -8.078125 4.097656 -8.039062 4.234375 -7.96875 Z M 4.234375 -6.703125 "/></g></g><g transform="translate(266.719969, 206.949157)"><g><path d="M 0.703125 -4.328125 C 0.703125 -5.484375 0.976562 -6.394531 1.53125 -7.0625 C 2.09375 -7.738281 2.832031 -8.078125 3.75 -8.078125 C 4.664062 -8.078125 5.398438 -7.75 5.953125 -7.09375 C 6.515625 -6.4375 6.804688 -5.546875 6.828125 -4.421875 L 6.828125 -3.578125 C 6.828125 -2.429688 6.546875 -1.523438 5.984375 -0.859375 C 5.429688 -0.191406 4.691406 0.140625 3.765625 0.140625 C 2.847656 0.140625 2.109375 -0.179688 1.546875 -0.828125 C 0.992188 -1.472656 0.710938 -2.351562 0.703125 -3.46875 Z M 2 -3.578125 C 2 -2.765625 2.15625 -2.125 2.46875 -1.65625 C 2.789062 -1.1875 3.222656 -0.953125 3.765625 -0.953125 C 4.910156 -0.953125 5.5 -1.78125 5.53125 -3.4375 L 5.53125 -4.328125 C 5.53125 -5.140625 5.367188 -5.78125 5.046875 -6.25 C 4.722656 -6.71875 4.289062 -6.953125 3.75 -6.953125 C 3.21875 -6.953125 2.789062 -6.71875 2.46875 -6.25 C 2.15625 -5.78125 2 -5.144531 2 -4.34375 Z M 2 -3.578125 "/></g></g><g transform="translate(274.249265, 206.949157)"><g><path d="M 0.703125 -4.328125 C 0.703125 -5.546875 0.925781 -6.472656 1.375 -7.109375 C 1.832031 -7.753906 2.488281 -8.078125 3.34375 -8.078125 C 4.101562 -8.078125 4.695312 -7.769531 5.125 -7.15625 L 5.125 -11.25 L 6.421875 -11.25 L 6.421875 0 L 5.234375 0 L 5.15625 -0.84375 C 4.738281 -0.1875 4.132812 0.140625 3.34375 0.140625 C 2.519531 0.140625 1.875 -0.175781 1.40625 -0.8125 C 0.9375 -1.445312 0.703125 -2.347656 0.703125 -3.515625 Z M 2 -3.578125 C 2 -2.691406 2.128906 -2.039062 2.390625 -1.625 C 2.648438 -1.207031 3.078125 -1 3.671875 -1 C 4.316406 -1 4.800781 -1.320312 5.125 -1.96875 L 5.125 -5.96875 C 4.789062 -6.601562 4.3125 -6.921875 3.6875 -6.921875 C 3.09375 -6.921875 2.660156 -6.710938 2.390625 -6.296875 C 2.128906 -5.878906 2 -5.238281 2 -4.375 Z M 2 -3.578125 "/></g></g><g transform="translate(281.690671, 206.949157)"><g><path d="M 2.1875 -7.921875 L 2.234375 -7.0625 C 2.734375 -7.738281 3.375 -8.078125 4.15625 -8.078125 C 5.550781 -8.078125 6.257812 -7.140625 6.28125 -5.265625 L 6.28125 0 L 5 0 L 5 -5.203125 C 5 -5.828125 4.894531 -6.269531 4.6875 -6.53125 C 4.476562 -6.789062 4.164062 -6.921875 3.75 -6.921875 C 3.425781 -6.921875 3.132812 -6.8125 2.875 -6.59375 C 2.625 -6.382812 2.421875 -6.101562 2.265625 -5.75 L 2.265625 0 L 0.96875 0 L 0.96875 -7.921875 Z M 2.1875 -7.921875 "/></g></g><g transform="translate(288.948971, 206.949157)"><g><path d="M 2.359375 0 L 1.0625 0 L 1.0625 -7.921875 L 2.359375 -7.921875 Z M 2.46875 -10.03125 C 2.46875 -9.8125 2.40625 -9.628906 2.28125 -9.484375 C 2.164062 -9.335938 1.984375 -9.265625 1.734375 -9.265625 C 1.484375 -9.265625 1.296875 -9.335938 1.171875 -9.484375 C 1.054688 -9.628906 1 -9.8125 1 -10.03125 C 1 -10.25 1.054688 -10.429688 1.171875 -10.578125 C 1.296875 -10.734375 1.476562 -10.8125 1.71875 -10.8125 C 1.96875 -10.8125 2.15625 -10.734375 2.28125 -10.578125 C 2.40625 -10.421875 2.46875 -10.238281 2.46875 -10.03125 Z M 2.46875 -10.03125 "/></g></g><g transform="translate(292.38403, 206.949157)"><g><path d="M 3.71875 -0.953125 C 4.144531 -0.953125 4.488281 -1.085938 4.75 -1.359375 C 5.007812 -1.628906 5.148438 -2.007812 5.171875 -2.5 L 6.40625 -2.5 C 6.375 -1.738281 6.101562 -1.109375 5.59375 -0.609375 C 5.082031 -0.109375 4.457031 0.140625 3.71875 0.140625 C 2.738281 0.140625 1.988281 -0.164062 1.46875 -0.78125 C 0.957031 -1.394531 0.703125 -2.3125 0.703125 -3.53125 L 0.703125 -4.40625 C 0.703125 -5.601562 0.957031 -6.515625 1.46875 -7.140625 C 1.976562 -7.765625 2.726562 -8.078125 3.71875 -8.078125 C 4.519531 -8.078125 5.160156 -7.816406 5.640625 -7.296875 C 6.117188 -6.785156 6.375 -6.085938 6.40625 -5.203125 L 5.171875 -5.203125 C 5.148438 -5.785156 5.007812 -6.222656 4.75 -6.515625 C 4.5 -6.804688 4.15625 -6.953125 3.71875 -6.953125 C 3.132812 -6.953125 2.703125 -6.765625 2.421875 -6.390625 C 2.148438 -6.015625 2.007812 -5.394531 2 -4.53125 L 2 -3.515625 C 2 -2.578125 2.132812 -1.914062 2.40625 -1.53125 C 2.6875 -1.144531 3.125 -0.953125 3.71875 -0.953125 Z M 3.71875 -0.953125 "/></g></g><g transform="translate(299.31274, 206.949157)"><g><path d="M 2.171875 -1.109375 L 5.984375 -1.109375 L 5.984375 0 L 0.6875 0 L 0.6875 -1 L 4.328125 -6.796875 L 0.71875 -6.796875 L 0.71875 -7.921875 L 5.84375 -7.921875 L 5.84375 -6.96875 Z M 2.171875 -1.109375 "/></g></g><g transform="translate(305.897212, 206.949157)"><g><path d="M 3.796875 0.140625 C 2.816406 0.140625 2.0625 -0.148438 1.53125 -0.734375 C 1 -1.328125 0.726562 -2.191406 0.71875 -3.328125 L 0.71875 -4.28125 C 0.71875 -5.46875 0.972656 -6.394531 1.484375 -7.0625 C 2.003906 -7.738281 2.726562 -8.078125 3.65625 -8.078125 C 4.582031 -8.078125 5.273438 -7.78125 5.734375 -7.1875 C 6.191406 -6.59375 6.425781 -5.671875 6.4375 -4.421875 L 6.4375 -3.578125 L 2.015625 -3.578125 L 2.015625 -3.390625 C 2.015625 -2.535156 2.171875 -1.914062 2.484375 -1.53125 C 2.804688 -1.144531 3.269531 -0.953125 3.875 -0.953125 C 4.257812 -0.953125 4.59375 -1.023438 4.875 -1.171875 C 5.164062 -1.316406 5.441406 -1.546875 5.703125 -1.859375 L 6.375 -1.046875 C 5.8125 -0.253906 4.953125 0.140625 3.796875 0.140625 Z M 3.65625 -6.953125 C 3.113281 -6.953125 2.710938 -6.769531 2.453125 -6.40625 C 2.203125 -6.039062 2.054688 -5.46875 2.015625 -4.6875 L 5.140625 -4.6875 L 5.140625 -4.859375 C 5.109375 -5.609375 4.972656 -6.144531 4.734375 -6.46875 C 4.492188 -6.789062 4.132812 -6.953125 3.65625 -6.953125 Z M 3.65625 -6.953125 "/></g></g><g transform="translate(312.921138, 206.949157)"><g><path d="M 0.703125 -4.328125 C 0.703125 -5.554688 0.925781 -6.488281 1.375 -7.125 C 1.832031 -7.757812 2.492188 -8.078125 3.359375 -8.078125 C 4.160156 -8.078125 4.769531 -7.726562 5.1875 -7.03125 L 5.265625 -7.921875 L 6.4375 -7.921875 L 6.4375 0.078125 C 6.4375 1.054688 6.179688 1.804688 5.671875 2.328125 C 5.171875 2.859375 4.472656 3.125 3.578125 3.125 C 3.179688 3.125 2.738281 3.023438 2.25 2.828125 C 1.769531 2.640625 1.410156 2.398438 1.171875 2.109375 L 1.6875 1.21875 C 2.226562 1.75 2.820312 2.015625 3.46875 2.015625 C 4.550781 2.015625 5.109375 1.425781 5.140625 0.25 L 5.140625 -0.78125 C 4.710938 -0.164062 4.113281 0.140625 3.34375 0.140625 C 2.519531 0.140625 1.878906 -0.164062 1.421875 -0.78125 C 0.960938 -1.394531 0.722656 -2.28125 0.703125 -3.4375 Z M 2 -3.578125 C 2 -2.691406 2.128906 -2.039062 2.390625 -1.625 C 2.660156 -1.207031 3.09375 -1 3.6875 -1 C 4.332031 -1 4.816406 -1.328125 5.140625 -1.984375 L 5.140625 -5.953125 C 4.796875 -6.597656 4.316406 -6.921875 3.703125 -6.921875 C 3.109375 -6.921875 2.675781 -6.710938 2.40625 -6.296875 C 2.144531 -5.878906 2.007812 -5.238281 2 -4.375 Z M 2 -3.578125 "/></g></g><g transform="translate(320.311274, 206.949157)"><g><path d="M 0.703125 -4.328125 C 0.703125 -5.484375 0.976562 -6.394531 1.53125 -7.0625 C 2.09375 -7.738281 2.832031 -8.078125 3.75 -8.078125 C 4.664062 -8.078125 5.398438 -7.75 5.953125 -7.09375 C 6.515625 -6.4375 6.804688 -5.546875 6.828125 -4.421875 L 6.828125 -3.578125 C 6.828125 -2.429688 6.546875 -1.523438 5.984375 -0.859375 C 5.429688 -0.191406 4.691406 0.140625 3.765625 0.140625 C 2.847656 0.140625 2.109375 -0.179688 1.546875 -0.828125 C 0.992188 -1.472656 0.710938 -2.351562 0.703125 -3.46875 Z M 2 -3.578125 C 2 -2.765625 2.15625 -2.125 2.46875 -1.65625 C 2.789062 -1.1875 3.222656 -0.953125 3.765625 -0.953125 C 4.910156 -0.953125 5.5 -1.78125 5.53125 -3.4375 L 5.53125 -4.328125 C 5.53125 -5.140625 5.367188 -5.78125 5.046875 -6.25 C 4.722656 -6.71875 4.289062 -6.953125 3.75 -6.953125 C 3.21875 -6.953125 2.789062 -6.71875 2.46875 -6.25 C 2.15625 -5.78125 2 -5.144531 2 -4.34375 Z M 2 -3.578125 "/></g></g></g><g fill="#000000" fill-opacity="1"><g transform="translate(18.411461, 200.624987)"><g><path d="M 9.566406 0.414062 C 15.269531 0.320312 17.984375 -4.1875 20.652344 -10.625 C 22.816406 -10.394531 25.160156 -10.121094 26.539062 -10.027344 C 25.667969 -6.625 24.839844 -3.265625 24.46875 -0.828125 C 24.976562 0.460938 28.976562 0.460938 29.667969 -0.828125 C 30.035156 -3.449219 30.957031 -6.945312 31.691406 -10.121094 C 35.140625 -10.394531 38.546875 -11.5 40.660156 -14.121094 C 41.167969 -14.765625 40.246094 -16.421875 39.417969 -15.59375 C 37.765625 -13.84375 35.050781 -13.0625 32.152344 -12.878906 C 32.933594 -15.867188 34.683594 -23 34.726562 -27.460938 C 34.726562 -32.246094 29.070312 -33.300781 25.023438 -29.023438 C 21.804688 -25.621094 19.550781 -20.238281 17.019531 -14.214844 C 10.488281 -14.765625 4.324219 -11.960938 3.171875 -6.484375 C 2.390625 -2.390625 4.554688 0.507812 9.566406 0.414062 Z M 27.183594 -12.972656 C 25.941406 -13.0625 23.6875 -13.339844 21.847656 -13.617188 C 23.6875 -18.492188 25.757812 -24.195312 28.335938 -27.277344 C 29.667969 -28.839844 30.773438 -28.425781 30.496094 -26.679688 C 29.761719 -22.355469 28.152344 -16.421875 27.183594 -12.972656 Z M 9.707031 -2.851562 C 7.910156 -2.851562 7.636719 -4.644531 8.140625 -6.441406 C 9.152344 -9.613281 12.097656 -11.085938 15.730469 -10.992188 C 13.800781 -6.253906 12.328125 -2.898438 9.707031 -2.851562 Z M 9.707031 -2.851562 "/></g></g></g><g fill="#000000" fill-opacity="1"><g transform="translate(46.490999, 200.624987)"><g><path d="M 34.128906 -31.140625 C 32.613281 -27.550781 30.21875 -19.824219 23.042969 -17.433594 C 24.792969 -23.457031 25.898438 -27 27.230469 -30.773438 C 27.277344 -31.96875 22.816406 -32.429688 22.078125 -31.003906 C 16.789062 -24.5625 7.039062 -26.585938 5.519531 -20.191406 C 4.738281 -17.066406 7.082031 -13.84375 11.363281 -13.984375 C 12.601562 -14.167969 12.878906 -16.375 12.1875 -16.605469 C 10.441406 -16.972656 10.164062 -18.167969 10.535156 -19.6875 C 11.316406 -23.089844 16.972656 -22.859375 20.699219 -26.863281 C 19.273438 -22.402344 18.308594 -18.351562 15.960938 -10.347656 C 14.765625 -6.347656 13.617188 -2.898438 11.175781 -2.851562 C 8.234375 -2.804688 7.40625 -6.394531 9.707031 -9.199219 C 9.890625 -10.441406 7.867188 -11.636719 6.898438 -11.222656 C 1.289062 -8.050781 2.761719 0.507812 10.535156 0.460938 C 17.523438 0.414062 19.273438 -4.230469 21.847656 -13.660156 C 24.148438 -13.660156 25.34375 -12.097656 25.898438 -8.96875 C 26.816406 -4 26.816406 4.277344 32.886719 5.199219 C 35.234375 5.382812 36.566406 2.484375 35.738281 1.65625 C 31.417969 0.414062 31.324219 -5.796875 30.3125 -10.121094 C 29.851562 -12.375 28.933594 -14.488281 26.910156 -15.410156 C 32.703125 -17.523438 36.84375 -24.058594 39.007812 -30.589844 C 38.914062 -31.644531 35.1875 -32.472656 34.128906 -31.140625 Z M 34.128906 -31.140625 "/></g></g></g></svg>